<svg width="173" height="64" viewBox="0 0 173 64" fill="none" xmlns="http://www.w3.org/2000/svg">
<path d="M141.132 0.136313C138.798 0.200474 136.873 0.264634 136.857 0.272655C136.785 0.352855 134.243 15.3664 134.299 15.3905C134.339 15.4065 136.769 15.0616 139.697 14.6285C144.661 13.8907 145.03 13.8265 145.063 13.6742C145.087 13.5859 145.608 10.5704 146.226 6.97742C146.843 3.38443 147.372 0.344835 147.397 0.216514L147.445 -2.76566e-05L146.41 0.00799274C145.849 0.0160131 143.474 0.0721531 141.132 0.136313Z" fill="white"/>
<path d="M33.9516 4.82C31.0241 4.89218 28.6179 4.97238 28.6099 4.98842C28.6018 5.00446 28.1366 7.62702 27.5752 10.819C27.0218 14.011 26.5485 16.6335 26.5405 16.6416C26.5004 16.6736 16.4184 16.9142 16.3863 16.8822C16.3703 16.8741 16.8194 14.2516 17.3809 11.0756C17.9343 7.89168 18.3754 5.26912 18.3594 5.25308C18.3113 5.20496 7.41114 5.48566 7.36301 5.53378C7.30687 5.59794 2.23778 34.8952 2.27789 34.9353C2.32601 34.9834 13.4186 33.3553 13.4989 33.2912C13.5229 33.2671 13.8277 31.6391 14.1646 29.6741C14.5095 27.7092 14.7982 26.0972 14.7982 26.0892C14.8142 26.0651 23.7974 25.8245 24.5193 25.8245H25.0005L24.4872 28.7599C24.2065 30.3719 23.9899 31.7032 24.006 31.7273C24.0461 31.7594 35.2109 30.1152 35.251 30.0671C35.2831 30.027 39.6303 4.88416 39.6303 4.74782C39.6303 4.6997 39.5501 4.6596 39.4538 4.6596C39.3496 4.66762 36.8712 4.7398 33.9516 4.82Z" fill="white"/>
<path d="M159.74 8.83005C156.917 8.90224 154.174 8.97442 153.645 8.98244L152.682 8.99046L150.34 11.1639C149.049 12.3669 148.006 13.3534 148.022 13.3694C148.03 13.3854 151.423 12.8882 155.554 12.2787L163.069 11.1639L164.015 10.2817C164.529 9.79246 165.114 9.23106 165.315 9.03056L165.668 8.66163L165.275 8.66965C165.05 8.67767 162.564 8.74985 159.74 8.83005Z" fill="white"/>
<path d="M118.281 9.47166C113.942 9.91277 110.421 11.3163 108.4 13.4095C106.924 14.9333 106.25 16.4892 106.146 18.6225C106.106 19.4486 106.114 19.5689 106.226 19.5689C106.338 19.5689 115.217 18.2697 115.803 18.1654C115.979 18.1333 116.044 18.0852 116.019 18.013C115.939 17.8125 116.228 17.4035 116.605 17.1629C117.559 16.5534 120.206 16.4411 122.773 16.8982L123.503 17.0266L125.58 16.7218C126.727 16.5534 127.706 16.393 127.762 16.3689C127.85 16.3208 130.336 11.204 130.344 11.0596C130.344 10.9794 128.933 10.4581 128.099 10.2336C125.821 9.61602 124.473 9.45562 121.482 9.42354C120.118 9.4075 118.674 9.43156 118.281 9.47166Z" fill="white"/>
<path d="M97.4676 10.394C95.3341 10.4501 93.5776 10.5143 93.5696 10.5223C93.5295 10.5784 91.6045 21.6862 91.6366 21.7103C91.6767 21.7584 102.344 20.1624 102.408 20.1063C102.448 20.0581 104.117 10.5945 104.117 10.3619C104.117 10.2416 102.882 10.2496 97.4676 10.394Z" fill="white"/>
<path d="M80.7766 10.811C78.1939 10.8752 76.0764 10.9393 76.0604 10.9473C76.0283 10.9714 73.7344 24.3408 73.7584 24.3649C73.7905 24.405 84.4581 22.817 84.5062 22.7689C84.5302 22.7448 84.9955 20.1143 85.5489 16.9143C86.1023 13.7223 86.5755 11.0115 86.5996 10.8832L86.6477 10.6666L86.0542 10.6827C85.7334 10.6827 83.3592 10.7468 80.7766 10.811Z" fill="white"/>
<path d="M65.2564 11.204C62.8742 11.2681 60.9092 11.3403 60.8931 11.3564C60.8771 11.3724 60.3638 14.2275 59.7542 17.7002C59.1446 21.1809 58.5671 24.3248 58.4789 24.7017C58.3827 25.0787 58.1661 25.6882 57.9896 26.0571C57.8212 26.426 57.6849 26.7388 57.6929 26.7549C57.7169 26.7709 69.0101 25.1027 69.0341 25.0787C69.0422 25.0706 69.5796 21.9749 70.2212 18.2055C70.8709 14.4361 71.4243 11.2842 71.4404 11.204C71.4885 11.0356 71.5687 11.0356 65.2564 11.204Z" fill="white"/>
<path d="M48.5494 11.6291C45.7181 11.7093 43.384 11.7814 43.368 11.7975C43.3279 11.8456 40.8495 26.2977 40.7532 27.0276C40.7131 27.3564 40.673 28.006 40.673 28.4632V29.2972L40.9377 29.2491C41.0741 29.2331 43.6006 28.8561 46.5362 28.4231L51.878 27.6371L51.7175 27.1479C51.4208 26.2095 51.517 25.4155 52.7763 18.1975C53.4019 14.6366 53.9072 11.6692 53.9072 11.597C53.9072 11.5248 53.8591 11.4767 53.8109 11.4767C53.7548 11.4847 51.3887 11.5569 48.5494 11.6291Z" fill="white"/>
<path d="M157.334 18.2135C153.324 18.6867 149.995 19.0797 149.939 19.0877C149.883 19.0877 149.209 19.6491 148.431 20.3308C147.653 21.0125 147.012 21.5739 146.995 21.5739C146.979 21.5739 147.068 21.0847 147.188 20.4912L147.405 19.4085H147.236C147.148 19.4165 144.702 19.6972 141.814 20.0341L136.569 20.6596L134.708 29.9549C133.681 35.0717 132.823 39.4266 132.791 39.6431L132.735 40.0201L138.02 40.004L143.298 39.9799L143.787 37.5338L144.284 35.0877L145.351 34.0612C145.945 33.4997 146.562 32.9303 146.723 32.794L147.02 32.5534L147.741 33.7805C148.142 34.4541 149.129 36.1223 149.931 37.4937L151.399 39.9799L157.599 40.004C161 40.012 163.791 39.996 163.791 39.9719C163.791 39.9479 161.914 36.7639 159.612 32.9063C157.31 29.0486 155.449 25.8887 155.465 25.8727C155.505 25.8406 164.617 17.6361 164.793 17.4757C164.946 17.3233 164.946 17.3233 164.793 17.3313C164.705 17.3393 161.353 17.7323 157.334 18.2135Z" fill="white"/>
<path d="M128.339 21.6221C127.521 21.7183 126.799 21.8065 126.735 21.8145C126.671 21.8145 126.888 21.9268 127.216 22.0471C127.545 22.1674 128.115 22.4241 128.476 22.6005C128.845 22.785 129.173 22.9373 129.222 22.9373C129.286 22.9373 130.024 21.582 130.024 21.4536C130.024 21.4055 130.112 21.3975 128.339 21.6221Z" fill="white"/>
<path d="M113.341 23.3784C110.67 23.6992 108.472 23.9719 108.456 23.9719C108.4 23.988 108.544 24.9263 108.697 25.5037C108.921 26.3459 109.282 26.9714 109.932 27.6611C111.52 29.3373 113.485 30.0672 118.354 30.797C120.776 31.1659 121.361 31.4065 121.361 32.0481C121.361 32.2807 121.305 32.401 121.089 32.6015C120.68 32.9865 120.078 33.1308 118.666 33.1789C115.875 33.2832 112.747 32.6175 110.349 31.4145L109.33 30.9012L107.526 34.4541C106.531 36.403 105.721 38.0311 105.721 38.0792C105.721 38.1193 105.994 38.2877 106.322 38.4481C107.951 39.2421 110.261 39.8516 113.1 40.2366C114.648 40.4451 119.043 40.4451 120.439 40.2366C124.85 39.5789 127.89 38.0872 129.703 35.6812C130.272 34.9193 130.657 34.1413 130.954 33.1629C131.131 32.5534 131.171 32.2406 131.203 31.1579C131.243 30.0431 131.219 29.7784 131.074 29.1769C130.842 28.1905 130.449 27.4606 129.783 26.7549C128.395 25.2952 126.96 24.6616 123.607 24.02C119.693 23.2662 119.34 23.194 118.923 22.9855C118.69 22.8732 118.426 22.7769 118.346 22.7849C118.265 22.793 116.011 23.0576 113.341 23.3784Z" fill="white"/>
<path d="M99.2322 25.0305C96.3046 25.3754 93.8904 25.6721 93.8744 25.6962C93.8583 25.7122 93.7541 26.1213 93.6418 26.5945C93.2407 28.3749 92.7515 29.4656 91.9815 30.2917C91.1634 31.1659 90.1127 31.5669 88.7973 31.5027C86.8322 31.4065 86.1344 30.1072 86.5916 27.4045C86.6638 26.9714 86.7039 26.5945 86.6798 26.5704C86.6156 26.5062 76.0203 27.7413 75.9561 27.8135C75.8839 27.8937 75.6593 29.1288 75.5551 30.027C75.4187 31.1899 75.507 33.3794 75.7235 34.2456C76.1406 35.9378 76.7662 37.0686 77.865 38.0952C79.1163 39.2822 80.6242 39.9879 82.5411 40.3007C83.5196 40.4531 85.4366 40.4611 86.3189 40.3007C88.308 39.9559 90.1447 39.1137 91.5484 37.9107C91.805 37.6942 92.0296 37.5338 92.0537 37.5579C92.0777 37.5819 91.9895 38.1273 91.8612 38.7689C91.7328 39.4105 91.6446 39.9559 91.6687 39.9799C91.7409 40.0521 101.534 40.028 101.582 39.9559C101.63 39.8837 104.678 24.6295 104.678 24.4772C104.678 24.421 104.654 24.3809 104.622 24.3889C104.582 24.397 102.16 24.6857 99.2322 25.0305Z" fill="white"/>
<path d="M65.4249 28.9924L59.8264 29.6581L59.5697 29.9709C58.7356 30.9894 57.8774 31.4225 56.5459 31.4947C55.4311 31.5588 54.9659 31.4065 54.3964 30.813L53.9552 30.3558L48.3809 31.0135C45.3089 31.3744 42.7904 31.6711 42.7824 31.6711C42.7263 31.6872 42.7664 32.5854 42.8466 33.203C43.3118 36.9483 45.5576 39.3864 49.3353 40.2205C50.2818 40.429 52.5677 40.4771 53.6023 40.3007C55.7198 39.9478 57.5164 39.0817 59.289 37.5578C59.4013 37.4616 59.3853 37.622 59.1928 38.5523C59.0725 39.1619 58.9682 39.7393 58.9602 39.8355V40.02H63.925H68.8898L68.978 39.635C69.0181 39.4265 69.5315 36.8601 70.1089 33.9248C70.6864 30.9894 71.1757 28.5273 71.1998 28.4471C71.2238 28.3669 71.1998 28.3107 71.1356 28.3187C71.0795 28.3268 68.5128 28.6315 65.4249 28.9924Z" fill="white"/>
<path d="M31.6497 32.9624C28.7863 33.3072 26.348 33.596 26.2437 33.612C26.0512 33.6441 26.0272 33.7323 25.4256 36.6917C25.0807 38.3679 24.8 39.8035 24.8 39.8837C24.792 40.012 25.0888 40.02 30.3102 40.004L35.8205 39.9799L36.5905 36.1463L37.3604 32.3208L37.1118 32.3288C36.9754 32.3368 34.5211 32.6175 31.6497 32.9624Z" fill="white"/>
<path d="M9.67301 35.5448C6.72139 35.8897 4.29112 36.1945 4.27508 36.2105C4.22695 36.2586 3.53717 39.6912 3.53717 39.8757C3.53717 40.012 3.76977 40.02 9.04739 40.004L14.5576 39.9799L15.0629 37.4937C15.3356 36.1223 15.5602 34.9834 15.5682 34.9433C15.5682 34.8471 15.2554 34.8792 9.67301 35.5448Z" fill="white"/>
<path d="M67.3659 50.6546C67.3338 50.6787 67.4622 51.0476 67.6306 51.4727C67.8071 51.8977 67.9354 52.3228 67.9193 52.411C67.9033 52.4992 67.0531 54.6887 66.0265 57.2872C65.0078 59.8777 64.1737 62.0351 64.1737 62.0752C64.1737 62.1794 65.4089 63.9198 65.449 63.8717C65.4891 63.8316 66.8847 60.4391 66.9569 60.2065C66.997 60.0782 67.1654 60.0702 69.3711 60.0862L71.7452 60.1103L72.5232 61.995L73.3093 63.8797L74.3199 63.9037C75.1219 63.9198 75.3305 63.9037 75.2984 63.8235C71.7051 54.7448 70.1812 50.9032 70.109 50.7749C70.0288 50.6145 69.9566 50.6065 68.7134 50.6065C67.9996 50.6065 67.39 50.6306 67.3659 50.6546ZM70.2213 56.0441L70.9833 58.3057H69.3551H67.7268L68.4968 56.1564C69.4353 53.5659 69.3791 53.7022 69.4272 53.7504C69.4513 53.7664 69.8042 54.801 70.2213 56.0441Z" fill="white"/>
<path d="M94.5721 50.6867C94.5721 50.7268 94.7085 51.0957 94.8689 51.4967C95.0293 51.9057 95.1576 52.2747 95.1576 52.3228C95.1576 52.3709 94.2994 54.5844 93.2567 57.2471L91.3478 62.0912L91.6927 62.5804C91.8852 62.8531 92.1739 63.2702 92.3504 63.5027L92.6632 63.9278L93.2888 62.3799C93.6337 61.5298 93.9866 60.6636 94.0829 60.4471L94.2433 60.0702H96.5934H98.9434L99.7375 61.995L100.532 63.9198H101.526C102.063 63.9198 102.513 63.8957 102.513 63.8717C102.513 63.8476 101.35 60.8962 99.938 57.3193C98.5183 53.7343 97.3393 50.7589 97.3232 50.7027C97.2751 50.5824 94.5721 50.5584 94.5721 50.6867ZM97.4516 56.0842C97.8526 57.2712 98.1815 58.2576 98.1815 58.2737C98.1815 58.2897 97.4596 58.3057 96.5773 58.3057C95.695 58.3057 94.9732 58.2817 94.9732 58.2576C94.9732 58.2175 96.3928 54.2316 96.5452 53.8626C96.6254 53.6541 96.6254 53.6461 97.4516 56.0842Z" fill="white"/>
<path d="M53.5863 50.815C53.5863 50.8391 53.9232 51.2722 54.3323 51.7694L55.0702 52.6917H56.538H58.0058L57.9817 55.9639L57.9576 59.2281L57.693 59.7654C57.0754 61.0326 55.6958 61.7865 53.6024 62.019L52.696 62.1153L53.2896 62.9574L53.8751 63.7995L54.3162 63.7915C54.5488 63.7835 55.0541 63.7033 55.4231 63.607C57.6448 63.0296 59.0725 61.8025 59.6901 59.9499C59.8746 59.3965 59.8826 59.3404 59.9067 55.0737L59.9307 50.7669H56.7545C55.014 50.7669 53.5863 50.791 53.5863 50.815Z" fill="white"/>
<path d="M78.0495 50.799C78.0495 50.8151 78.3222 51.1519 78.651 51.5369L79.2526 52.2506V57.183L79.2446 62.1153L80.191 63.0136L81.1374 63.9118L81.1615 61.7544L81.1775 59.605L83.1266 59.573C85.22 59.5329 85.5248 59.4767 86.3429 58.9955C87.177 58.5063 87.947 57.4156 88.1957 56.373C88.4523 55.2822 88.2759 53.8386 87.7786 52.9083C87.2252 51.8657 86.006 51.0156 84.827 50.8471C84.3056 50.775 78.0495 50.7268 78.0495 50.799ZM85.0756 52.9163C85.5809 53.1489 86.006 53.574 86.2466 54.0953C86.391 54.4161 86.4311 54.6326 86.4311 55.2181C86.4311 55.8436 86.399 55.996 86.2065 56.397C86.0782 56.6537 85.8376 56.9825 85.6531 57.1349C85.0997 57.608 84.8109 57.6642 82.886 57.6642H81.1775V55.1699V52.6757L82.9261 52.7078C84.5382 52.7319 84.6986 52.7479 85.0756 52.9163Z" fill="white"/>
<path d="M105.32 50.8391C105.32 50.8792 105.593 51.2401 105.921 51.6331L106.523 52.3549V57.2632V62.1634L107.181 63.0857C107.822 63.984 107.846 64.008 108.127 63.984L108.408 63.9599L108.448 59.4045L108.488 54.8491L111.64 59.4286L114.792 64H115.554H116.308V57.4236V50.8471H115.346H114.383L114.367 55.3945L114.343 59.9499L111.167 55.3784L107.999 50.807L106.659 50.783C105.865 50.7749 105.32 50.791 105.32 50.8391Z" fill="white"/>
<path d="M122.163 56.7419V57.4236H147.148H172.132V56.7419V56.0602H147.148H122.163V56.7419Z" fill="white"/>
<path d="M0.0240621 57.199L0.0481242 57.8647L25.0166 57.8887L49.977 57.9048V57.223V56.5413H24.9925H0L0.0240621 57.199Z" fill="white"/>
</svg>
