<svg width="22" height="25" fill="none" xmlns="http://www.w3.org/2000/svg"><g clip-path="url(#a)"><path fill="#fff" d="M3 5h16v13H3z"/><path d="M21.7 3.499a.822.822 0 0 0-.191-.426.803.803 0 0 0-.39-.248L11.215.03a.786.786 0 0 0-.43 0L.88 2.825a.803.803 0 0 0-.39.248.821.821 0 0 0-.192.426c-.056.42-1.367 10.32 1.994 15.25 3.362 4.93 8.305 6.177 8.52 6.228a.792.792 0 0 0 .378 0c.209-.051 5.162-1.307 8.518-6.232C23.064 13.82 21.763 3.922 21.7 3.5Zm-4.314 5.78-6.755 6.854a.802.802 0 0 1-.878.178.797.797 0 0 1-.26-.178l-4.177-4.238a.814.814 0 0 1-.237-.577.824.824 0 0 1 .237-.577l.828-.842a.805.805 0 0 1 .57-.24.795.795 0 0 1 .57.24l2.776 2.819 5.356-5.436a.804.804 0 0 1 .57-.238c.214 0 .418.086.57.238l.828.842a.818.818 0 0 1 .237.578.828.828 0 0 1-.235.578Z" fill="#5CD200"/></g><defs><clipPath id="a"><path fill="#fff" d="M0 0h22v25H0z"/></clipPath></defs></svg>